<svg width="72" height="73" viewBox="0 0 72 73" fill="none" xmlns="http://www.w3.org/2000/svg">
<path fill-rule="evenodd" clip-rule="evenodd" d="M35.15 69C33.3957 69 31.8991 67.6924 31.6135 65.9098C31.3504 64.4677 30.3422 63.2893 28.986 62.8393C27.881 62.4484 26.8005 61.9876 25.7509 61.4593C24.5019 60.8013 23.0036 60.8999 21.8458 61.7156C20.4446 62.753 18.5199 62.5924 17.2993 61.3361L12.5519 56.4469C11.2742 55.131 11.1082 53.0566 12.1595 51.543C12.9702 50.3232 13.087 48.7505 12.4658 47.4178C12.0564 46.4922 11.6954 45.5444 11.3842 44.5789C10.9385 43.0575 9.70816 41.918 8.19209 41.6218C6.3639 41.3211 5.01423 39.7041 5.00005 37.7972V31.6809C4.99033 29.4832 6.53167 27.6034 8.63719 27.2451C10.2345 26.9322 11.5683 25.8055 12.1786 24.2535C12.3605 23.8165 12.5519 23.3828 12.7529 22.9524C13.5647 21.3429 13.4526 19.4043 12.461 17.9055C11.2209 16.1306 11.4113 13.692 12.9108 12.144L16.3996 8.55107C18.1203 6.77836 20.8341 6.54894 22.8125 8.00893L22.9225 8.08778C24.3998 9.11174 26.2796 9.29721 27.9188 8.58064C29.6724 7.93061 30.9651 6.37876 31.3214 4.49486L31.3695 4.32728C31.7632 1.83328 33.8547 0.00103556 36.3084 5.58794e-07H40.5198C43.0393 -0.0011823 45.1897 1.87567 45.602 4.43572L45.6786 4.78071C46.0168 6.58541 47.2424 8.07901 48.9137 8.72357C50.5247 9.4356 52.3771 9.24965 53.8241 8.23071L54.0631 8.05328C56.0928 6.54682 58.8837 6.77851 60.6532 8.60036L63.8643 11.9124C65.4738 13.579 65.676 16.1999 64.3429 18.1076C63.2983 19.7021 63.1653 21.751 63.9934 23.4748L64.1995 23.9676C64.87 25.6507 66.3214 26.8706 68.0566 27.2106C70.3248 27.5916 71.9926 29.6054 72 31.9716V37.4571C71.9995 39.5439 70.5339 41.3241 68.5351 41.6661C66.8913 41.9909 65.5523 43.2167 65.0462 44.8599C64.8229 45.5168 64.574 46.1743 64.2997 46.8313C63.6611 48.2754 63.8029 49.958 64.6732 51.267C65.8213 52.9122 65.6431 55.1719 64.2521 56.6046L59.7967 61.1981C58.5224 62.5101 56.5129 62.6791 55.0492 61.5973C53.827 60.7372 52.2441 60.6426 50.9335 61.3509C49.9995 61.8274 49.0408 62.2503 48.0621 62.6175C46.6931 63.1039 45.684 64.3105 45.4204 65.7767C45.1411 67.6215 43.6053 68.9862 41.7926 69H35.15Z" fill="url(#paint0_linear_39_1178)"/>
<g filter="url(#filter0_b_39_1178)">
<path fill-rule="evenodd" clip-rule="evenodd" d="M32.15 71C30.3957 71 28.8991 69.6924 28.6135 67.9098C28.3504 66.4677 27.3422 65.2893 25.986 64.8393C24.881 64.4484 23.8005 63.9876 22.7509 63.4593C21.5019 62.8013 20.0036 62.8999 18.8458 63.7156C17.4446 64.753 15.5199 64.5924 14.2993 63.3361L9.5519 58.4469C8.27424 57.131 8.10824 55.0566 9.15947 53.543C9.9702 52.3232 10.087 50.7505 9.46576 49.4178C9.05645 48.4922 8.69538 47.5444 8.38419 46.5789C7.93846 45.0575 6.70816 43.918 5.19209 43.6218C3.3639 43.3211 2.01423 41.7041 2.00005 39.7972V33.6809C1.99033 31.4832 3.53167 29.6034 5.63719 29.2451C7.23449 28.9322 8.56826 27.8055 9.17862 26.2535C9.36048 25.8165 9.5519 25.3828 9.7529 24.9524C10.5647 23.3429 10.4526 21.4043 9.46095 19.9055C8.22093 18.1306 8.41133 15.692 9.91081 14.144L13.3996 10.5511C15.1203 8.77836 17.8341 8.54894 19.8125 10.0089L19.9225 10.0878C21.3998 11.1117 23.2796 11.2972 24.9188 10.5806C26.6724 9.93061 27.9651 8.37876 28.3214 6.49486L28.3695 6.32728C28.7632 3.83328 30.8547 2.00104 33.3084 2H37.5198C40.0393 1.99882 42.1897 3.87567 42.602 6.43572L42.6786 6.78071C43.0168 8.58541 44.2424 10.079 45.9137 10.7236C47.5247 11.4356 49.3771 11.2496 50.8241 10.2307L51.0631 10.0533C53.0928 8.54682 55.8837 8.77851 57.6532 10.6004L60.8643 13.9124C62.4738 15.579 62.676 18.1999 61.3429 20.1076C60.2983 21.7021 60.1653 23.751 60.9934 25.4748L61.1995 25.9676C61.87 27.6507 63.3214 28.8706 65.0566 29.2106C67.3248 29.5916 68.9926 31.6054 69 33.9716V39.4571C68.9995 41.5439 67.5339 43.3241 65.5351 43.6661C63.8913 43.9909 62.5523 45.2167 62.0462 46.8599C61.8229 47.5168 61.574 48.1743 61.2997 48.8313C60.6611 50.2754 60.8029 51.958 61.6732 53.267C62.8213 54.9122 62.6431 57.1719 61.2521 58.6046L56.7967 63.1981C55.5224 64.5101 53.5129 64.6791 52.0492 63.5973C50.827 62.7372 49.2441 62.6426 47.9335 63.3509C46.9995 63.8274 46.0408 64.2503 45.0621 64.6175C43.6931 65.1039 42.684 66.3105 42.4204 67.7767C42.1411 69.6215 40.6053 70.9862 38.7926 71H32.15Z" fill="white" fill-opacity="0.24"/>
<path fill-rule="evenodd" clip-rule="evenodd" d="M32.15 71C30.3957 71 28.8991 69.6924 28.6135 67.9098C28.3504 66.4677 27.3422 65.2893 25.986 64.8393C24.881 64.4484 23.8005 63.9876 22.7509 63.4593C21.5019 62.8013 20.0036 62.8999 18.8458 63.7156C17.4446 64.753 15.5199 64.5924 14.2993 63.3361L9.5519 58.4469C8.27424 57.131 8.10824 55.0566 9.15947 53.543C9.9702 52.3232 10.087 50.7505 9.46576 49.4178C9.05645 48.4922 8.69538 47.5444 8.38419 46.5789C7.93846 45.0575 6.70816 43.918 5.19209 43.6218C3.3639 43.3211 2.01423 41.7041 2.00005 39.7972V33.6809C1.99033 31.4832 3.53167 29.6034 5.63719 29.2451C7.23449 28.9322 8.56826 27.8055 9.17862 26.2535C9.36048 25.8165 9.5519 25.3828 9.7529 24.9524C10.5647 23.3429 10.4526 21.4043 9.46095 19.9055C8.22093 18.1306 8.41133 15.692 9.91081 14.144L13.3996 10.5511C15.1203 8.77836 17.8341 8.54894 19.8125 10.0089L19.9225 10.0878C21.3998 11.1117 23.2796 11.2972 24.9188 10.5806C26.6724 9.93061 27.9651 8.37876 28.3214 6.49486L28.3695 6.32728C28.7632 3.83328 30.8547 2.00104 33.3084 2H37.5198C40.0393 1.99882 42.1897 3.87567 42.602 6.43572L42.6786 6.78071C43.0168 8.58541 44.2424 10.079 45.9137 10.7236C47.5247 11.4356 49.3771 11.2496 50.8241 10.2307L51.0631 10.0533C53.0928 8.54682 55.8837 8.77851 57.6532 10.6004L60.8643 13.9124C62.4738 15.579 62.676 18.1999 61.3429 20.1076C60.2983 21.7021 60.1653 23.751 60.9934 25.4748L61.1995 25.9676C61.87 27.6507 63.3214 28.8706 65.0566 29.2106C67.3248 29.5916 68.9926 31.6054 69 33.9716V39.4571C68.9995 41.5439 67.5339 43.3241 65.5351 43.6661C63.8913 43.9909 62.5523 45.2167 62.0462 46.8599C61.8229 47.5168 61.574 48.1743 61.2997 48.8313C60.6611 50.2754 60.8029 51.958 61.6732 53.267C62.8213 54.9122 62.6431 57.1719 61.2521 58.6046L56.7967 63.1981C55.5224 64.5101 53.5129 64.6791 52.0492 63.5973C50.827 62.7372 49.2441 62.6426 47.9335 63.3509C46.9995 63.8274 46.0408 64.2503 45.0621 64.6175C43.6931 65.1039 42.684 66.3105 42.4204 67.7767C42.1411 69.6215 40.6053 70.9862 38.7926 71H32.15Z" stroke="#B6B6B6" stroke-width="3" stroke-linecap="round" stroke-linejoin="round"/>
</g>
<path fill-rule="evenodd" clip-rule="evenodd" d="M47 36.5C47 42.8514 41.8513 48 35.4999 48C29.1485 48 24 42.8514 24 36.5C24 30.1487 29.1485 25 35.4999 25C41.8513 25 47 30.1487 47 36.5Z" fill="white" fill-opacity="0.24" stroke="#B6B6B6" stroke-width="2" stroke-linecap="round" stroke-linejoin="round"/>
<defs>
<filter id="filter0_b_39_1178" x="-6.5" y="-6.5" width="84" height="86" filterUnits="userSpaceOnUse" color-interpolation-filters="sRGB">
<feFlood flood-opacity="0" result="BackgroundImageFix"/>
<feGaussianBlur in="BackgroundImageFix" stdDeviation="3.5"/>
<feComposite in2="SourceAlpha" operator="in" result="effect1_backgroundBlur_39_1178"/>
<feBlend mode="normal" in="SourceGraphic" in2="effect1_backgroundBlur_39_1178" result="shape"/>
</filter>
<linearGradient id="paint0_linear_39_1178" x1="38.5" y1="0" x2="38.5" y2="69" gradientUnits="userSpaceOnUse">
<stop stop-color="#CA5540"/>
<stop offset="1" stop-color="#EC6BAE"/>
</linearGradient>
</defs>
</svg>
