<svg width="197" height="197" viewBox="0 0 197 197" fill="none" xmlns="http://www.w3.org/2000/svg">
<circle cx="98.5" cy="98.5" r="98.5" fill="#CA5540" fill-opacity="0.25"/>
<path d="M98.5 173.336V148.418" stroke="white" stroke-width="5" stroke-miterlimit="10"/>
<path d="M148.336 98.6465C148.319 111.853 143.061 124.512 133.716 133.844C124.372 143.176 111.706 148.418 98.4999 148.418C85.2938 148.418 72.6276 143.176 63.2833 133.844C53.9391 124.512 48.6809 111.853 48.6636 98.6465" stroke="white" stroke-width="5" stroke-miterlimit="10"/>
<path d="M79.8457 173.336H117.158" stroke="white" stroke-width="5" stroke-miterlimit="10"/>
<path d="M124.204 116.604C122.501 117.255 120.726 117.782 118.875 118.158L130.96 127.354C131.361 127.664 131.835 127.811 132.308 127.811C132.98 127.811 133.647 127.508 134.085 126.931C134.832 125.947 134.645 124.55 133.659 123.799L124.204 116.604Z" fill="white"/>
<path d="M63.8506 123.804C62.8663 124.553 62.6775 125.952 63.4238 126.936C63.8623 127.512 64.5292 127.816 65.2009 127.816C65.6743 127.816 66.1478 127.666 66.5513 127.361L78.6346 118.165C76.7827 117.787 75.0081 117.258 73.3054 116.607L63.8506 123.804Z" fill="white"/>
<path d="M138.727 91.8388C137.201 79.7136 136.572 59.8594 137.325 47.5827C137.677 41.9249 135.601 36.3881 131.469 31.9873C126.021 26.194 117.667 22.866 108.543 22.866H88.9619C79.8383 22.866 71.482 26.194 66.0364 31.9896C61.9084 36.3905 59.8304 41.927 60.1825 47.5827C60.9358 59.8618 60.3083 79.7136 58.7832 91.8458C58.0741 97.5411 59.849 103.134 63.7741 107.572C68.8957 113.37 77.063 116.696 86.1749 116.696H111.328C120.44 116.696 128.607 113.37 133.729 107.572C137.661 103.131 139.431 97.5434 138.727 91.8388ZM69.2944 35.0471C73.9029 30.1424 81.072 27.3299 88.9666 27.3299H108.545C116.44 27.3299 123.609 30.1424 128.218 35.0471C131.52 38.5687 133.127 42.7784 132.868 47.2259C130.277 64.0155 122.877 69.3424 122.814 69.382C121.795 70.0629 121.515 71.4297 122.182 72.4512C122.611 73.1113 127.898 78.3027 133.148 79.4128C133.255 81.1923 133.379 82.932 133.509 84.6113C132.198 86.8572 124.539 97.6343 98.7569 97.6343C72.9837 97.6343 65.3199 86.8665 64.0023 84.6113C64.1353 82.9625 64.2541 81.2436 64.3614 79.4943C69.6135 78.4075 74.924 73.104 75.3461 72.4348C75.9874 71.4227 75.7005 70.0746 74.7188 69.3937C74.6419 69.3447 67.2393 64.0179 64.646 47.2283C64.3827 42.7808 65.9919 38.5689 69.2944 35.0471ZM111.332 112.227H86.1773C78.341 112.227 71.3981 109.456 67.123 104.612C64.0119 101.093 62.6591 96.867 63.2166 92.3986C63.3424 91.3771 63.4593 90.2925 63.5757 89.1778C66.7546 93.8912 75.5493 102.101 98.7524 102.101C121.956 102.101 130.75 93.8912 133.929 89.1731C134.046 90.2902 134.167 91.3747 134.288 92.3939C134.843 96.8671 133.491 101.093 130.379 104.612C126.109 109.456 119.169 112.227 111.332 112.227Z" fill="white"/>
<path d="M72.0059 55.1275C73.4099 62.1568 80.3832 67.8729 87.5477 67.8729H109.96C117.122 67.8729 124.098 62.1568 125.5 55.1275L126.715 49.0614C127.433 45.4791 126.656 42.0787 124.525 39.476C122.389 36.8757 119.205 35.4436 115.553 35.4436H81.9576C78.3076 35.4436 75.1218 36.8755 72.9855 39.476C70.8539 42.0787 70.0772 45.4791 70.7932 49.0614L72.0059 55.1275Z" fill="white"/>
<path d="M86.8265 75.1471C86.4744 74.3332 85.6722 73.8108 84.7811 73.8108H78.5635C77.8078 73.8108 77.1058 74.1886 76.6931 74.8229C76.2803 75.4549 76.215 76.2525 76.5181 76.9405L82.1085 89.6977C82.4654 90.5116 83.2677 91.034 84.1538 91.034H90.3762C90.3949 91.034 90.4087 91.034 90.4181 91.034C91.6519 91.034 92.6546 90.0335 92.6546 88.8021C92.6546 88.3241 92.5078 87.8903 92.2559 87.5265L86.8265 75.1471Z" fill="white"/>
<path d="M118.944 73.8108H112.726C111.836 73.8108 111.033 74.3355 110.679 75.1471L105.086 87.8996C104.783 88.5923 104.853 89.3899 105.263 90.0195C105.674 90.6491 106.38 91.034 107.131 91.034H113.354C114.242 91.034 115.045 90.507 115.399 89.6977L120.989 76.9405C121.292 76.2525 121.229 75.4526 120.814 74.8229C120.402 74.1888 119.697 73.8108 118.944 73.8108Z" fill="white"/>
<path d="M98.7561 103.481C96.6035 103.481 94.8521 105.244 94.8521 107.406C94.8521 109.559 96.6035 111.31 98.7561 111.31C100.909 111.31 102.66 109.559 102.66 107.406C102.66 105.244 100.909 103.481 98.7561 103.481Z" fill="white"/>
</svg>
