<svg width="185" height="185" viewBox="0 0 185 185" fill="none" xmlns="http://www.w3.org/2000/svg">
<circle cx="92.5" cy="92.5" r="92.5" fill="#302E30" fill-opacity="0.45"/>
<path d="M92.5 162.777V139.377" stroke="white" stroke-width="5" stroke-miterlimit="10"/>
<path d="M139.301 92.6377C139.285 105.039 134.347 116.928 125.572 125.691C116.797 134.455 104.902 139.377 92.5008 139.377C80.0991 139.377 68.2045 134.455 59.4294 125.691C50.6544 116.928 45.7164 105.039 45.7002 92.6377" stroke="white" stroke-width="5" stroke-miterlimit="10"/>
<path d="M74.9814 162.777H110.021" stroke="white" stroke-width="5" stroke-miterlimit="10"/>
<path d="M116.635 109.502C115.037 110.113 113.37 110.608 111.631 110.961L122.98 119.596C123.357 119.887 123.802 120.026 124.246 120.026C124.877 120.026 125.503 119.741 125.915 119.2C126.616 118.276 126.441 116.964 125.514 116.259L116.635 109.502Z" fill="white"/>
<path d="M59.9608 116.263C59.0365 116.966 58.8592 118.28 59.5601 119.204C59.9718 119.745 60.5981 120.03 61.229 120.03C61.6735 120.03 62.1181 119.89 62.4971 119.603L73.8443 110.967C72.1052 110.612 70.4387 110.115 68.8398 109.504L59.9608 116.263Z" fill="white"/>
<path d="M130.275 86.2448C128.842 74.8582 128.251 56.2134 128.959 44.6845C129.289 39.3713 127.34 34.1719 123.459 30.0391C118.343 24.5987 110.498 21.4734 101.93 21.4734H83.5415C74.9737 21.4734 67.1264 24.5987 62.0125 30.0413C58.1359 34.1741 56.1846 39.3733 56.5152 44.6845C57.2226 56.2156 56.6333 74.8582 55.2011 86.2514C54.5352 91.5998 56.202 96.8518 59.888 101.02C64.6977 106.464 72.3674 109.587 80.9243 109.587H104.545C113.102 109.587 120.772 106.464 125.581 101.02C129.274 96.8496 130.936 91.602 130.275 86.2448ZM65.0721 32.9125C69.3998 28.3066 76.1322 25.6654 83.5459 25.6654H101.932C109.346 25.6654 116.078 28.3066 120.406 32.9125C123.507 36.2196 125.016 40.1729 124.773 44.3495C122.34 60.1164 115.391 65.1187 115.331 65.1559C114.374 65.7954 114.111 67.0789 114.738 68.0382C115.141 68.6581 120.106 73.5333 125.036 74.5757C125.137 76.2469 125.253 77.8806 125.375 79.4576C124.144 81.5667 116.952 91.6873 92.7399 91.6873C68.5367 91.6873 61.3397 81.5754 60.1023 79.4576C60.2273 77.9092 60.3388 76.295 60.4396 74.6523C65.3718 73.6317 70.3587 68.6513 70.7551 68.0228C71.3574 67.0723 71.088 65.8064 70.166 65.1669C70.0939 65.1209 63.1421 60.1186 60.7068 44.3517C60.4595 40.1751 61.9707 36.2198 65.0721 32.9125ZM104.549 105.391H80.9265C73.5676 105.391 67.0476 102.789 63.033 98.2403C60.1113 94.9354 58.841 90.9667 59.3645 86.7705C59.4827 85.8112 59.5924 84.7927 59.7017 83.7459C62.6869 88.1722 70.946 95.8815 92.7357 95.8815C114.525 95.8815 122.784 88.1722 125.77 83.7415C125.879 84.7906 125.993 85.809 126.107 86.7661C126.628 90.9669 125.358 94.9354 122.436 98.2403C118.426 102.789 111.908 105.391 104.549 105.391Z" fill="white"/>
<path d="M67.6189 51.77C68.9374 58.3711 75.4859 63.7391 82.214 63.7391H103.261C109.987 63.7391 116.538 58.3711 117.854 51.77L118.995 46.0734C119.67 42.7094 118.94 39.5161 116.939 37.072C114.933 34.63 111.943 33.2852 108.513 33.2852H76.9643C73.5367 33.2852 70.5449 34.6299 68.5388 37.072C66.537 39.5161 65.8076 42.7094 66.4801 46.0734L67.6189 51.77Z" fill="white"/>
<path d="M81.5362 70.5696C81.2056 69.8052 80.4522 69.3147 79.6154 69.3147H73.7765C73.0669 69.3147 72.4077 69.6695 72.0201 70.2652C71.6325 70.8587 71.5711 71.6077 71.8557 72.2538L77.1056 84.2338C77.4408 84.9982 78.1942 85.4888 79.0263 85.4888H84.8697C84.8873 85.4888 84.9003 85.4888 84.909 85.4888C86.0676 85.4888 87.0093 84.5493 87.0093 83.3929C87.0093 82.9439 86.8714 82.5365 86.6349 82.1949L81.5362 70.5696Z" fill="white"/>
<path d="M111.698 69.3147H105.859C105.023 69.3147 104.269 69.8074 103.936 70.5696L98.6844 82.5453C98.3997 83.1958 98.4653 83.9448 98.8509 84.5361C99.2363 85.1274 99.8999 85.4888 100.605 85.4888H106.448C107.283 85.4888 108.036 84.9938 108.369 84.2338L113.619 72.2538C113.904 71.6077 113.845 70.8565 113.455 70.2652C113.067 69.6697 112.406 69.3147 111.698 69.3147Z" fill="white"/>
<path d="M92.7405 97.178C90.719 97.178 89.0742 98.8337 89.0742 100.864C89.0742 102.886 90.719 104.53 92.7405 104.53C94.762 104.53 96.4068 102.886 96.4068 100.864C96.4069 98.8337 94.762 97.178 92.7405 97.178Z" fill="white"/>
</svg>
