<svg width="243" height="257" viewBox="0 0 243 257" fill="none" xmlns="http://www.w3.org/2000/svg">
<path fill-rule="evenodd" clip-rule="evenodd" d="M78.8287 229.16C78.68 217.111 68.9071 207.383 56.8285 207.383C44.7649 207.383 35.0069 217.111 34.8581 229.16L34.8135 229.457C34.8135 241.64 44.6756 251.502 56.8137 251.502C68.9814 251.502 78.8436 241.64 78.8436 229.457L78.8287 229.16Z" fill="url(#paint0_linear_32_1047)"/>
<path fill-rule="evenodd" clip-rule="evenodd" d="M153.485 228.714C153.188 216.918 143.37 207.398 131.262 207.398C119.154 207.398 109.351 216.918 109.068 228.714C109.039 228.877 109.009 229.056 109.009 229.219C109.009 241.268 118.975 251.041 131.262 251.041C143.578 251.041 153.545 241.268 153.545 229.219C153.545 229.071 153.485 228.877 153.485 228.714Z" fill="url(#paint1_linear_32_1047)"/>
<path fill-rule="evenodd" clip-rule="evenodd" d="M212.983 228.714C212.686 216.918 202.868 207.398 190.76 207.398C178.652 207.398 168.849 216.918 168.566 228.714C168.537 228.877 168.507 229.056 168.507 229.219C168.507 241.268 178.473 251.041 190.76 251.041C203.076 251.041 213.043 241.268 213.043 229.219C213.043 229.071 212.983 228.877 212.983 228.714Z" fill="url(#paint2_linear_32_1047)"/>
<path fill-rule="evenodd" clip-rule="evenodd" d="M241.84 236.538C241.84 222.183 228.126 207.219 228.126 207.219H227.426V191.571V162.683H212.789V118.058L183.605 118.415V163.04L167.926 162.683V133.246H153.75V162.683H108.426V117.136H123.301V88.085H5V116.913H19.875V193.147H5.20825V236.612H19.7709C19.3395 234.292 19.0569 231.912 19.0569 229.472C19.0569 229.294 19.1313 228.981 19.1313 228.981C19.3842 208.305 36.1483 191.6 56.8395 191.6C77.5604 191.6 94.3395 208.305 94.5775 228.981C94.5775 229.13 94.6667 229.294 94.6667 229.472C94.6667 231.912 94.3692 234.292 93.9378 236.612H227.441V236.553H241.84V236.538ZM79.1372 163.07H49.2681V117.374H79.1372V163.07Z" fill="url(#paint3_linear_32_1047)"/>
<path d="M236.5 50.5C236.5 74.8007 216.801 94.5 192.5 94.5C168.199 94.5 148.5 74.8007 148.5 50.5C148.5 26.1995 168.199 6.5 192.5 6.5C216.801 6.5 236.5 26.1995 236.5 50.5Z" stroke="#ED5973" stroke-width="9"/>
<g filter="url(#filter0_b_32_1047)">
<path d="M235.289 239.61H222.441H220.941V239.67H90.7127C90.9894 237.842 91.1667 235.959 91.1667 234.03C91.1667 233.861 91.1457 233.717 91.1249 233.611C91.1082 233.525 91.0884 233.449 91.0758 233.403C90.7656 211.965 73.3474 194.658 51.8395 194.658C30.3703 194.658 12.9759 211.949 12.6335 233.37C12.6289 233.393 12.624 233.418 12.6192 233.444C12.5996 233.55 12.5569 233.791 12.5569 234.03C12.5569 235.957 12.7253 237.838 12.9983 239.67H1.70825V199.205H14.875H16.375V197.705V121.47V119.97H14.875H1.5V94.1426H116.801V120.194H103.426H101.926V121.694V167.241V168.741H103.426H148.75H150.25V167.241V139.303H161.426V167.241V168.707L162.892 168.741L178.57 169.097L180.105 169.132V167.598V124.455L206.289 124.134V167.241V168.741H207.789H220.926V196.128V211.777V213.277H222.426H222.449C222.489 213.323 222.531 213.372 222.576 213.424C222.94 213.848 223.462 214.473 224.092 215.269C225.351 216.863 227.03 219.135 228.708 221.843C231.845 226.908 234.865 233.323 235.289 239.61ZM74.1372 169.128H75.6372V167.628V121.932V120.432H74.1372H44.2681H42.7681V121.932V167.628V169.128H44.2681H74.1372Z" fill="white" fill-opacity="0.24" stroke="#B6B6B6" stroke-width="3"/>
<g filter="url(#filter1_b_32_1047)">
<path fill-rule="evenodd" clip-rule="evenodd" d="M73.8268 233.717C73.678 221.669 63.9051 211.94 51.8266 211.94C39.7629 211.94 30.0049 221.669 29.8561 233.717L29.8115 234.015C29.8115 246.198 39.6737 256.06 51.8117 256.06C63.9795 256.06 73.8416 246.198 73.8416 234.015L73.8268 233.717Z" fill="white" fill-opacity="0.24"/>
<path d="M72.3269 233.736L72.3272 233.764L72.3286 233.792L72.3416 234.052C72.3218 245.39 63.1381 254.56 51.8117 254.56C40.5406 254.56 31.3709 245.43 31.3118 234.125L31.3396 233.94L31.3548 233.839L31.356 233.736C31.4947 222.501 40.5915 213.44 51.8266 213.44C63.0784 213.44 72.1882 222.503 72.3269 233.736Z" stroke="#B6B6B6" stroke-width="3"/>
</g>
<g filter="url(#filter2_b_32_1047)">
<path fill-rule="evenodd" clip-rule="evenodd" d="M148.485 233.271C148.188 221.475 138.37 211.955 126.262 211.955C114.154 211.955 104.351 221.475 104.068 233.271C104.039 233.435 104.009 233.613 104.009 233.777C104.009 245.826 113.975 255.599 126.262 255.599C138.578 255.599 148.545 245.826 148.545 233.777C148.545 233.628 148.485 233.435 148.485 233.271Z" fill="white" fill-opacity="0.24"/>
<path d="M105.544 233.54L105.565 233.424L105.568 233.307C105.831 222.344 114.95 213.455 126.262 213.455C137.57 213.455 146.702 222.338 146.985 233.296C146.987 233.413 146.997 233.515 147.007 233.589C147.016 233.665 147.029 233.737 147.036 233.778L147.036 233.781C147.04 233.804 147.043 233.82 147.045 233.831C147.015 244.998 137.76 254.099 126.262 254.099C114.776 254.099 105.509 244.97 105.509 233.777C105.509 233.778 105.509 233.778 105.509 233.778C105.509 233.778 105.509 233.76 105.515 233.718C105.521 233.672 105.53 233.617 105.544 233.54Z" stroke="#B6B6B6" stroke-width="3"/>
</g>
<g filter="url(#filter3_b_32_1047)">
<path fill-rule="evenodd" clip-rule="evenodd" d="M207.983 233.271C207.686 221.475 197.868 211.955 185.76 211.955C173.652 211.955 163.849 221.475 163.566 233.271C163.537 233.435 163.507 233.613 163.507 233.777C163.507 245.826 173.473 255.599 185.76 255.599C198.076 255.599 208.043 245.826 208.043 233.777C208.043 233.628 207.983 233.435 207.983 233.271Z" fill="white" fill-opacity="0.24"/>
<path d="M165.042 233.54L165.063 233.424L165.066 233.307C165.329 222.344 174.448 213.455 185.76 213.455C197.068 213.455 206.2 222.338 206.483 233.296C206.485 233.413 206.495 233.515 206.505 233.589C206.514 233.665 206.527 233.736 206.534 233.778L206.534 233.781C206.538 233.804 206.541 233.82 206.543 233.831C206.513 244.998 197.258 254.099 185.76 254.099C174.274 254.099 165.007 244.97 165.007 233.777C165.007 233.778 165.007 233.778 165.007 233.778C165.007 233.778 165.007 233.76 165.013 233.718C165.019 233.672 165.028 233.617 165.042 233.54Z" stroke="#B6B6B6" stroke-width="3"/>
</g>
<circle cx="192.215" cy="50.4489" r="48.7307" fill="#D9D9D9" fill-opacity="0.24" stroke="#B6B6B6" stroke-width="3"/>
<path d="M183.51 32.0256C185.501 29.77 188.414 28.3474 191.658 28.3474C197.659 28.3474 202.523 33.2117 202.523 39.2121C202.523 44.2843 199.047 48.5449 194.347 49.7417C192.893 50.1116 191.658 51.2931 191.658 52.793V55.5092" stroke="#B6B6B6" stroke-width="9" stroke-linecap="round" stroke-linejoin="round"/>
<path d="M191.658 71.8062H191.714" stroke="#B6B6B6" stroke-width="9" stroke-linecap="round" stroke-linejoin="round"/>
</g>
<defs>
<filter id="filter0_b_32_1047" x="-14" y="-13.7817" width="270.445" height="283.842" filterUnits="userSpaceOnUse" color-interpolation-filters="sRGB">
<feFlood flood-opacity="0" result="BackgroundImageFix"/>
<feGaussianBlur in="BackgroundImageFix" stdDeviation="7"/>
<feComposite in2="SourceAlpha" operator="in" result="effect1_backgroundBlur_32_1047"/>
<feBlend mode="normal" in="SourceGraphic" in2="effect1_backgroundBlur_32_1047" result="shape"/>
</filter>
<filter id="filter1_b_32_1047" x="18.8115" y="200.94" width="66.0303" height="66.1194" filterUnits="userSpaceOnUse" color-interpolation-filters="sRGB">
<feFlood flood-opacity="0" result="BackgroundImageFix"/>
<feGaussianBlur in="BackgroundImageFix" stdDeviation="5.5"/>
<feComposite in2="SourceAlpha" operator="in" result="effect1_backgroundBlur_32_1047"/>
<feBlend mode="normal" in="SourceGraphic" in2="effect1_backgroundBlur_32_1047" result="shape"/>
</filter>
<filter id="filter2_b_32_1047" x="93.0088" y="200.955" width="66.5361" height="65.6433" filterUnits="userSpaceOnUse" color-interpolation-filters="sRGB">
<feFlood flood-opacity="0" result="BackgroundImageFix"/>
<feGaussianBlur in="BackgroundImageFix" stdDeviation="5.5"/>
<feComposite in2="SourceAlpha" operator="in" result="effect1_backgroundBlur_32_1047"/>
<feBlend mode="normal" in="SourceGraphic" in2="effect1_backgroundBlur_32_1047" result="shape"/>
</filter>
<filter id="filter3_b_32_1047" x="152.507" y="200.955" width="66.5361" height="65.6433" filterUnits="userSpaceOnUse" color-interpolation-filters="sRGB">
<feFlood flood-opacity="0" result="BackgroundImageFix"/>
<feGaussianBlur in="BackgroundImageFix" stdDeviation="5.5"/>
<feComposite in2="SourceAlpha" operator="in" result="effect1_backgroundBlur_32_1047"/>
<feBlend mode="normal" in="SourceGraphic" in2="effect1_backgroundBlur_32_1047" result="shape"/>
</filter>
<linearGradient id="paint0_linear_32_1047" x1="35.4425" y1="208.053" x2="84.9065" y2="230.565" gradientUnits="userSpaceOnUse">
<stop stop-color="#CA5540"/>
<stop offset="0.503472" stop-color="#ED525E"/>
<stop offset="1" stop-color="#EC6BAE"/>
</linearGradient>
<linearGradient id="paint1_linear_32_1047" x1="109.645" y1="208.06" x2="159.289" y2="231.163" gradientUnits="userSpaceOnUse">
<stop stop-color="#CA5540"/>
<stop offset="0.503472" stop-color="#ED525E"/>
<stop offset="1" stop-color="#EC6BAE"/>
</linearGradient>
<linearGradient id="paint2_linear_32_1047" x1="169.143" y1="208.06" x2="218.787" y2="231.163" gradientUnits="userSpaceOnUse">
<stop stop-color="#CA5540"/>
<stop offset="0.503472" stop-color="#ED525E"/>
<stop offset="1" stop-color="#EC6BAE"/>
</linearGradient>
<linearGradient id="paint3_linear_32_1047" x1="8.38343" y1="90.3401" x2="218.467" y2="243.115" gradientUnits="userSpaceOnUse">
<stop stop-color="#CA5540"/>
<stop offset="0.503472" stop-color="#ED525E"/>
<stop offset="1" stop-color="#EC6BAE"/>
</linearGradient>
</defs>
</svg>
