<svg width="180" height="180" viewBox="0 0 180 180" fill="none" xmlns="http://www.w3.org/2000/svg">
<circle cx="90" cy="90" r="90" fill="#302E30" fill-opacity="0.45"/>
<path d="M90 158.378V135.61" stroke="white" stroke-width="5" stroke-miterlimit="10"/>
<path d="M135.536 90.134C135.52 102.201 130.716 113.767 122.178 122.294C113.64 130.821 102.067 135.61 90.0006 135.61C77.9341 135.61 66.3609 130.821 57.823 122.294C49.2851 113.767 44.4806 102.201 44.4648 90.134" stroke="white" stroke-width="5" stroke-miterlimit="10"/>
<path d="M72.9556 158.378H107.048" stroke="white" stroke-width="5" stroke-miterlimit="10"/>
<path d="M113.485 106.542C111.929 107.137 110.308 107.618 108.616 107.961L119.658 116.364C120.025 116.647 120.458 116.781 120.89 116.781C121.504 116.781 122.113 116.504 122.514 115.978C123.196 115.079 123.025 113.802 122.124 113.116L113.485 106.542Z" fill="white"/>
<path d="M58.3403 113.121C57.441 113.805 57.2684 115.083 57.9503 115.982C58.351 116.509 58.9603 116.786 59.5741 116.786C60.0067 116.786 60.4393 116.649 60.808 116.37L71.8485 107.968C70.1565 107.623 68.535 107.139 66.9792 106.544L58.3403 113.121Z" fill="white"/>
<path d="M126.755 83.9136C125.361 72.8348 124.786 54.694 125.474 43.4766C125.796 38.307 123.899 33.2481 120.123 29.227C115.145 23.9337 107.512 20.8928 99.1759 20.8928H81.2844C72.9481 20.8928 65.3129 23.9337 60.3372 29.2291C56.5654 33.2503 54.6668 38.309 54.9885 43.4766C55.6768 54.6961 55.1035 72.8348 53.7099 83.9201C53.0621 89.1239 54.6837 94.234 58.2702 98.2891C62.9498 103.587 70.4123 106.625 78.7379 106.625H101.72C110.046 106.625 117.509 103.587 122.188 98.2891C125.781 94.2318 127.398 89.126 126.755 83.9136ZM63.3141 32.0228C67.5249 27.5413 74.0754 24.9715 81.2887 24.9715H99.178C106.391 24.9715 112.942 27.5413 117.153 32.0228C120.17 35.2405 121.638 39.087 121.402 43.1507C119.034 58.4914 112.273 63.3586 112.215 63.3947C111.284 64.0169 111.028 65.2658 111.638 66.1991C112.03 66.8022 116.86 71.5457 121.657 72.56C121.755 74.1859 121.868 75.7755 121.987 77.3099C120.79 79.3619 113.792 89.2091 90.2342 89.2091C66.6851 89.2091 59.6826 79.3705 58.4787 77.3099C58.6002 75.8033 58.7088 74.2328 58.8068 72.6345C63.6057 71.6414 68.4579 66.7956 68.8436 66.1841C69.4296 65.2593 69.1674 64.0276 68.2704 63.4054C68.2002 63.3607 61.4363 58.4935 59.0668 43.1528C58.8262 39.0891 60.2966 35.2407 63.3141 32.0228ZM101.725 102.542H78.7401C71.58 102.542 65.2363 100.011 61.3301 95.5849C58.4874 92.3694 57.2514 88.5079 57.7608 84.4251C57.8758 83.4918 57.9825 82.5008 58.0889 81.4823C60.9934 85.7889 69.0293 93.2899 90.2301 93.2899C111.431 93.2899 119.467 85.7889 122.371 81.478C122.478 82.4987 122.589 83.4896 122.699 84.4209C123.207 88.5081 121.971 92.3694 119.128 95.5849C115.226 100.011 108.885 102.542 101.725 102.542Z" fill="white"/>
<path d="M65.7924 50.3705C67.0753 56.7932 73.4469 62.0161 79.9931 62.0161H100.472C107.016 62.0161 113.389 56.7932 114.67 50.3705L115.78 44.8279C116.437 41.5548 115.727 38.4478 113.779 36.0697C111.827 33.6938 108.919 32.3853 105.581 32.3853H74.8853C71.5504 32.3853 68.6394 33.6936 66.6875 36.0697C64.7398 38.4478 64.0301 41.5548 64.6844 44.8279L65.7924 50.3705Z" fill="white"/>
<path d="M79.3333 68.6624C79.0116 67.9187 78.2785 67.4414 77.4644 67.4414H71.7833C71.0929 67.4414 70.4514 67.7866 70.0743 68.3662C69.6972 68.9437 69.6375 69.6724 69.9144 70.301L75.0224 81.9573C75.3485 82.7011 76.0816 83.1783 76.8912 83.1783H82.5766C82.5937 83.1783 82.6064 83.1783 82.6149 83.1783C83.7422 83.1783 84.6585 82.2642 84.6585 81.1391C84.6585 80.7023 84.5243 80.3059 84.2942 79.9735L79.3333 68.6624Z" fill="white"/>
<path d="M108.68 67.4414H102.999C102.185 67.4414 101.452 67.9208 101.128 68.6624L96.018 80.3144C95.7411 80.9473 95.8049 81.6761 96.18 82.2514C96.555 82.8267 97.2007 83.1783 97.8869 83.1783H103.572C104.384 83.1783 105.117 82.6968 105.441 81.9573L110.549 70.301C110.826 69.6724 110.768 68.9415 110.389 68.3662C110.012 67.7868 109.369 67.4414 108.68 67.4414Z" fill="white"/>
<path d="M90.2342 94.5513C88.2673 94.5513 86.667 96.1622 86.667 98.1377C86.667 100.105 88.2673 101.705 90.2342 101.705C92.2011 101.705 93.8014 100.105 93.8014 98.1377C93.8015 96.1622 92.2011 94.5513 90.2342 94.5513Z" fill="white"/>
</svg>
